<svg width="32" height="24" viewBox="0 0 32 24" fill="none" xmlns="http://www.w3.org/2000/svg">
<path d="M8.44009 7.19815C12.6149 3.11067 19.3836 3.11067 23.5584 7.19815L24.0608 7.69007C24.2696 7.89447 24.2696 8.22581 24.0608 8.43021L22.3421 10.113C22.2377 10.2152 22.0685 10.2152 21.9641 10.113L21.2727 9.43607C18.3602 6.58451 13.6382 6.58451 10.7258 9.43607L9.98529 10.161C9.88095 10.2632 9.71175 10.2632 9.60735 10.161L7.88862 8.47821C7.67982 8.27381 7.67982 7.94247 7.88862 7.73807L8.44009 7.19815ZM27.113 10.6784L28.6427 12.1761C28.8514 12.3805 28.8514 12.7118 28.6427 12.9162L21.7452 19.6696C21.5364 19.8739 21.198 19.8739 20.9892 19.6696L16.0938 14.8765C16.0416 14.8254 15.957 14.8254 15.9048 14.8765L11.0094 19.6696C10.8007 19.8739 10.4622 19.8739 10.2535 19.6696L3.35577 12.9161C3.14703 12.7117 3.14703 12.3804 3.35577 12.176L4.88548 10.6783C5.09422 10.4739 5.43266 10.4739 5.6414 10.6783L10.537 15.4714C10.5891 15.5225 10.6737 15.5225 10.7259 15.4714L15.6212 10.6783C15.8299 10.4739 16.1684 10.4739 16.3771 10.6783L21.2726 15.4714C21.3248 15.5225 21.4094 15.5225 21.4616 15.4714L26.357 10.6784C26.5658 10.474 26.9042 10.474 27.113 10.6784Z" fill="#3396FF"/>
</svg>
