<svg width="32" height="32" viewBox="0 0 32 32" fill="none" xmlns="http://www.w3.org/2000/svg">
<path d="M27.5308 3.56577L17.5371 10.9882L19.3852 6.60908L27.5308 3.56577Z" fill="#E2761B" stroke="#E2761B" stroke-width="0.100439" stroke-linecap="round" stroke-linejoin="round"/>
<path d="M4.46094 3.56543L14.3743 11.0582L12.6166 6.60874L4.46094 3.56543Z" fill="#E4761B" stroke="#E4761B" stroke-width="0.100439" stroke-linecap="round" stroke-linejoin="round"/>
<path d="M23.9351 20.7705L21.2734 24.8483L26.9684 26.4152L28.6055 20.8609L23.9351 20.7705Z" fill="#E4761B" stroke="#E4761B" stroke-width="0.100439" stroke-linecap="round" stroke-linejoin="round"/>
<path d="M3.40625 20.8609L5.03337 26.4152L10.7283 24.8483L8.06664 20.7705L3.40625 20.8609Z" fill="#E4761B" stroke="#E4761B" stroke-width="0.100439" stroke-linecap="round" stroke-linejoin="round"/>
<path d="M10.4073 13.8804L8.82031 16.2809L14.4751 16.532L14.2742 10.4554L10.4073 13.8804Z" fill="#E4761B" stroke="#E4761B" stroke-width="0.100439" stroke-linecap="round" stroke-linejoin="round"/>
<path d="M21.5868 13.8807L17.6696 10.3854L17.5391 16.5323L23.1838 16.2812L21.5868 13.8807Z" fill="#E4761B" stroke="#E4761B" stroke-width="0.100439" stroke-linecap="round" stroke-linejoin="round"/>
<path d="M10.7285 24.8483L14.1234 23.191L11.1905 20.901L10.7285 24.8483Z" fill="#E4761B" stroke="#E4761B" stroke-width="0.100439" stroke-linecap="round" stroke-linejoin="round"/>
<path d="M17.8691 23.191L21.274 24.8483L20.802 20.901L17.8691 23.191Z" fill="#E4761B" stroke="#E4761B" stroke-width="0.100439" stroke-linecap="round" stroke-linejoin="round"/>
<path d="M21.2721 24.8491L17.8672 23.1918L18.1384 25.4115L18.1082 26.3456L21.2721 24.8491Z" fill="#D7C1B3" stroke="#D7C1B3" stroke-width="0.100439" stroke-linecap="round" stroke-linejoin="round"/>
<path d="M10.7266 24.849L13.8904 26.3455L13.8703 25.4115L14.1214 23.1917L10.7266 24.849Z" fill="#D7C1B3" stroke="#D7C1B3" stroke-width="0.100439" stroke-linecap="round" stroke-linejoin="round"/>
<path d="M13.9418 19.4351L11.1094 18.6015L13.1081 17.6875L13.9418 19.4351Z" fill="#233447" stroke="#233447" stroke-width="0.100439" stroke-linecap="round" stroke-linejoin="round"/>
<path d="M18.0488 19.4351L18.8825 17.6875L20.8913 18.6015L18.0488 19.4351Z" fill="#233447" stroke="#233447" stroke-width="0.100439" stroke-linecap="round" stroke-linejoin="round"/>
<path d="M10.7281 24.849L11.2102 20.7711L8.06641 20.8615L10.7281 24.849Z" fill="#CD6116" stroke="#CD6116" stroke-width="0.100439" stroke-linecap="round" stroke-linejoin="round"/>
<path d="M20.793 20.7711L21.2751 24.849L23.9367 20.8615L20.793 20.7711Z" fill="#CD6116" stroke="#CD6116" stroke-width="0.100439" stroke-linecap="round" stroke-linejoin="round"/>
<path d="M23.1818 16.2812L17.5371 16.5323L18.0594 19.435L18.893 17.6874L20.9018 18.6014L23.1818 16.2812Z" fill="#CD6116" stroke="#CD6116" stroke-width="0.100439" stroke-linecap="round" stroke-linejoin="round"/>
<path d="M11.1123 18.6014L13.1211 17.6874L13.9447 19.435L14.477 16.5323L8.82227 16.2812L11.1123 18.6014Z" fill="#CD6116" stroke="#CD6116" stroke-width="0.100439" stroke-linecap="round" stroke-linejoin="round"/>
<path d="M8.81641 16.2812L11.1868 20.9015L11.1064 18.6014L8.81641 16.2812Z" fill="#E4751F" stroke="#E4751F" stroke-width="0.100439" stroke-linecap="round" stroke-linejoin="round"/>
<path d="M20.8993 18.6014L20.7988 20.9015L23.1792 16.2812L20.8993 18.6014Z" fill="#E4751F" stroke="#E4751F" stroke-width="0.100439" stroke-linecap="round" stroke-linejoin="round"/>
<path d="M14.4718 16.5326L13.9395 19.4353L14.6024 22.8602L14.753 18.3505L14.4718 16.5326Z" fill="#E4751F" stroke="#E4751F" stroke-width="0.100439" stroke-linecap="round" stroke-linejoin="round"/>
<path d="M17.5349 16.5326L17.2637 18.3405L17.3842 22.8602L18.0571 19.4353L17.5349 16.5326Z" fill="#E4751F" stroke="#E4751F" stroke-width="0.100439" stroke-linecap="round" stroke-linejoin="round"/>
<path d="M18.0577 19.4349L17.3848 22.8599L17.8669 23.1913L20.7997 20.9013L20.9001 18.6012L18.0577 19.4349Z" fill="#F6851B" stroke="#F6851B" stroke-width="0.100439" stroke-linecap="round" stroke-linejoin="round"/>
<path d="M11.1094 18.6012L11.1897 20.9013L14.1226 23.1913L14.6047 22.8599L13.9418 19.4349L11.1094 18.6012Z" fill="#F6851B" stroke="#F6851B" stroke-width="0.100439" stroke-linecap="round" stroke-linejoin="round"/>
<path d="M18.1089 26.3452L18.139 25.4111L17.8879 25.1901H14.1013L13.8703 25.4111L13.8904 26.3452L10.7266 24.8486L11.8314 25.7526L14.0712 27.3094H17.918L20.1679 25.7526L21.2727 24.8486L18.1089 26.3452Z" fill="#C0AD9E" stroke="#C0AD9E" stroke-width="0.100439" stroke-linecap="round" stroke-linejoin="round"/>
<path d="M17.8666 23.1915L17.3845 22.86H14.6023L14.1202 23.1915L13.8691 25.4112L14.1002 25.1902H17.8867L18.1378 25.4112L17.8666 23.1915Z" fill="#161616" stroke="#161616" stroke-width="0.100439" stroke-linecap="round" stroke-linejoin="round"/>
<path d="M27.9494 11.47L28.8031 7.37208L27.5275 3.56543L17.8652 10.7368L21.5815 13.8806L26.8345 15.4173L27.9996 14.0613L27.4974 13.6998L28.3009 12.9666L27.6782 12.4845L28.4817 11.8718L27.9494 11.47Z" fill="#763D16" stroke="#763D16" stroke-width="0.100439" stroke-linecap="round" stroke-linejoin="round"/>
<path d="M3.19141 7.37208L4.04514 11.47L3.50277 11.8718L4.30628 12.4845L3.6936 12.9666L4.49712 13.6998L3.99492 14.0613L5.14997 15.4173L10.403 13.8806L14.1192 10.7368L4.45694 3.56543L3.19141 7.37208Z" fill="#763D16" stroke="#763D16" stroke-width="0.100439" stroke-linecap="round" stroke-linejoin="round"/>
<path d="M26.8391 15.4172L21.5862 13.8805L23.1831 16.281L20.8027 20.9012L23.9364 20.8611H28.6069L26.8391 15.4172Z" fill="#F6851B" stroke="#F6851B" stroke-width="0.100439" stroke-linecap="round" stroke-linejoin="round"/>
<path d="M10.4049 13.8805L5.15194 15.4172L3.4043 20.8611H8.06469L11.1884 20.9012L8.81798 16.281L10.4049 13.8805Z" fill="#F6851B" stroke="#F6851B" stroke-width="0.100439" stroke-linecap="round" stroke-linejoin="round"/>
<path d="M17.5368 16.5321L17.8682 10.7368L19.3949 6.60873H12.6152L14.1218 10.7368L14.4734 16.5321L14.5939 18.3601L14.6039 22.8598H17.3861L17.4062 18.3601L17.5368 16.5321Z" fill="#F6851B" stroke="#F6851B" stroke-width="0.100439" stroke-linecap="round" stroke-linejoin="round"/>
</svg>
